<?xml version="1.0" encoding="UTF-8" standalone="no"?>
<!DOCTYPE svg PUBLIC "-//W3C//DTD SVG 1.1//EN" "http://www.w3.org/Graphics/SVG/1.1/DTD/svg11.dtd">
<svg width="100%" height="100%" viewBox="0 0 149 127" version="1.1" xmlns="http://www.w3.org/2000/svg" xmlns:xlink="http://www.w3.org/1999/xlink" xml:space="preserve" xmlns:serif="http://www.serif.com/" style="fill-rule:evenodd;clip-rule:evenodd;stroke-linejoin:round;stroke-miterlimit:2;">
    <g transform="matrix(1,0,0,1,-416.735,-227.973)">
        <g id="ROCKDIP_01" transform="matrix(1.32558,0,0,1.32938,-19.4504,99.1348)">
            <g transform="matrix(0.630687,0,0,0.630687,149.377,-41.6506)">
                <circle cx="355.33" cy="258.004" r="22.351" style="fill:rgb(255,0,127);"/>
            </g>
            <g transform="matrix(0.630687,0,0,0.630687,122.183,1.84936)">
                <circle cx="355.33" cy="258.004" r="22.351" style="fill:rgb(255,0,127);"/>
            </g>
            <g transform="matrix(0.630687,0,0,0.630687,177.57,-41.6506)">
                <circle cx="355.33" cy="258.004" r="22.351" style="fill:rgb(255,0,127);"/>
            </g>
            <g transform="matrix(0.630687,0,0,0.630687,177.57,6.50814)">
                <circle cx="355.33" cy="258.004" r="22.351" style="fill:rgb(255,0,127);"/>
            </g>
            <g transform="matrix(0.264448,0,0,0.835542,274.597,-45.4899)">
                <g transform="matrix(181.51,0,0,57.4477,199.935,214.382)">
                    <path d="M0.037,-0.102L0.11,-0.122L0.11,-0.503C0.11,-0.52 0.109,-0.532 0.106,-0.538C0.103,-0.543 0.096,-0.548 0.085,-0.553L0.033,-0.582L0.039,-0.664C0.139,-0.679 0.235,-0.686 0.328,-0.686C0.4,-0.686 0.458,-0.679 0.502,-0.665C0.546,-0.65 0.578,-0.628 0.599,-0.598C0.619,-0.567 0.629,-0.527 0.629,-0.477C0.629,-0.436 0.618,-0.4 0.597,-0.369C0.576,-0.338 0.545,-0.314 0.506,-0.297L0.666,-0.039L0.665,-0L0.483,-0L0.335,-0.267L0.291,-0.268L0.291,-0.156C0.291,-0.14 0.292,-0.13 0.295,-0.126C0.297,-0.121 0.303,-0.116 0.312,-0.111L0.355,-0.086L0.351,-0L0.042,-0L0.037,-0.102ZM0.355,-0.38C0.39,-0.38 0.416,-0.383 0.433,-0.39C0.44,-0.414 0.443,-0.443 0.443,-0.476C0.443,-0.509 0.436,-0.533 0.422,-0.547C0.407,-0.561 0.383,-0.568 0.35,-0.568C0.331,-0.568 0.312,-0.567 0.293,-0.565L0.293,-0.386C0.31,-0.382 0.331,-0.38 0.355,-0.38Z" style="fill:rgb(33,48,73);fill-rule:nonzero;"/>
                </g>
                <g transform="matrix(181.51,0,0,57.4477,322.273,214.382)">
                    <path d="M0.267,0.013C0.182,0.013 0.119,-0.009 0.078,-0.052C0.036,-0.095 0.015,-0.162 0.015,-0.251C0.015,-0.308 0.025,-0.358 0.047,-0.401C0.068,-0.444 0.098,-0.476 0.137,-0.499C0.176,-0.522 0.223,-0.533 0.276,-0.533C0.449,-0.533 0.535,-0.444 0.535,-0.265C0.535,-0.178 0.511,-0.11 0.465,-0.061C0.418,-0.012 0.352,0.013 0.267,0.013ZM0.283,-0.104C0.296,-0.104 0.308,-0.105 0.318,-0.108C0.328,-0.11 0.339,-0.114 0.35,-0.119C0.354,-0.134 0.357,-0.154 0.36,-0.178C0.363,-0.202 0.364,-0.225 0.364,-0.247C0.364,-0.301 0.356,-0.342 0.339,-0.37C0.322,-0.398 0.296,-0.412 0.263,-0.412C0.241,-0.412 0.219,-0.409 0.196,-0.403C0.191,-0.393 0.188,-0.377 0.185,-0.355C0.182,-0.332 0.181,-0.307 0.181,-0.278C0.181,-0.222 0.19,-0.179 0.207,-0.149C0.225,-0.119 0.25,-0.104 0.283,-0.104Z" style="fill:rgb(33,48,73);fill-rule:nonzero;"/>
                </g>
                <g transform="matrix(181.51,0,0,57.4477,429.364,214.382)">
                    <path d="M0.259,0.013C0.182,0.013 0.122,-0.011 0.079,-0.059C0.036,-0.106 0.015,-0.172 0.015,-0.256C0.015,-0.343 0.038,-0.411 0.084,-0.46C0.129,-0.509 0.192,-0.533 0.271,-0.533C0.331,-0.533 0.395,-0.519 0.464,-0.492C0.463,-0.473 0.46,-0.447 0.455,-0.416C0.45,-0.384 0.445,-0.355 0.44,-0.328L0.373,-0.322L0.311,-0.401C0.294,-0.404 0.276,-0.406 0.255,-0.406C0.238,-0.406 0.223,-0.405 0.209,-0.403C0.194,-0.374 0.186,-0.332 0.186,-0.279C0.186,-0.224 0.196,-0.184 0.215,-0.158C0.234,-0.131 0.264,-0.118 0.303,-0.118C0.322,-0.118 0.344,-0.121 0.371,-0.127C0.398,-0.132 0.425,-0.14 0.453,-0.151L0.477,-0.051C0.45,-0.032 0.417,-0.017 0.378,-0.005C0.338,0.007 0.298,0.013 0.259,0.013Z" style="fill:rgb(33,48,73);fill-rule:nonzero;"/>
                </g>
                <g transform="matrix(181.51,0,0,57.4477,518.666,214.382)">
                    <path d="M0.026,-0.095L0.088,-0.113L0.088,-0.592C0.088,-0.607 0.087,-0.616 0.085,-0.621C0.083,-0.625 0.078,-0.63 0.069,-0.635L0.025,-0.658L0.028,-0.734L0.059,-0.739C0.147,-0.755 0.209,-0.764 0.244,-0.765C0.25,-0.749 0.254,-0.732 0.257,-0.713L0.257,-0.306L0.368,-0.414C0.371,-0.417 0.373,-0.421 0.373,-0.425C0.373,-0.428 0.372,-0.431 0.37,-0.433L0.342,-0.468L0.353,-0.523L0.575,-0.523C0.581,-0.501 0.585,-0.477 0.587,-0.452L0.421,-0.31L0.614,-0.044L0.614,-0L0.438,-0L0.257,-0.26L0.257,-0.146C0.257,-0.132 0.258,-0.123 0.26,-0.118C0.262,-0.113 0.267,-0.108 0.276,-0.103L0.325,-0.075L0.321,-0L0.031,-0L0.026,-0.095Z" style="fill:rgb(33,48,73);fill-rule:nonzero;"/>
                </g>
                <g transform="matrix(181.51,0,0,57.4477,199.935,271.83)">
                    <path d="M0.241,0.003C0.169,0.003 0.103,-0 0.042,-0.006L0.037,-0.102L0.11,-0.122L0.11,-0.503C0.11,-0.52 0.109,-0.532 0.106,-0.538C0.103,-0.543 0.096,-0.548 0.085,-0.553L0.033,-0.582L0.039,-0.665C0.108,-0.67 0.167,-0.675 0.214,-0.678C0.261,-0.681 0.299,-0.682 0.328,-0.682C0.42,-0.682 0.494,-0.671 0.55,-0.65C0.605,-0.629 0.646,-0.595 0.672,-0.549C0.697,-0.503 0.71,-0.442 0.71,-0.366C0.71,-0.27 0.688,-0.192 0.644,-0.133C0.605,-0.082 0.553,-0.046 0.488,-0.027C0.423,-0.007 0.34,0.003 0.241,0.003ZM0.367,-0.14C0.423,-0.14 0.467,-0.147 0.5,-0.16C0.506,-0.177 0.511,-0.203 0.517,-0.238C0.522,-0.273 0.524,-0.306 0.524,-0.337C0.524,-0.412 0.508,-0.468 0.477,-0.504C0.447,-0.54 0.399,-0.558 0.336,-0.558C0.327,-0.558 0.319,-0.558 0.312,-0.557C0.305,-0.556 0.298,-0.556 0.291,-0.555L0.291,-0.145C0.318,-0.142 0.343,-0.14 0.367,-0.14Z" style="fill:rgb(33,48,73);fill-rule:nonzero;"/>
                </g>
                <g transform="matrix(181.51,0,0,57.4477,336.067,271.83)">
                    <path d="M0.067,-0.74L0.237,-0.785L0.278,-0.633L0.109,-0.587L0.067,-0.74ZM0.025,-0.092L0.095,-0.113L0.095,-0.356C0.095,-0.371 0.094,-0.38 0.092,-0.385C0.089,-0.389 0.083,-0.394 0.074,-0.399L0.03,-0.423L0.035,-0.498C0.09,-0.509 0.133,-0.517 0.164,-0.522C0.194,-0.527 0.222,-0.529 0.247,-0.53C0.256,-0.501 0.261,-0.48 0.263,-0.466L0.263,-0.146C0.263,-0.132 0.264,-0.123 0.266,-0.118C0.268,-0.113 0.274,-0.108 0.283,-0.103L0.332,-0.075L0.328,-0L0.028,-0L0.025,-0.092Z" style="fill:rgb(33,48,73);fill-rule:nonzero;"/>
                </g>
                <g transform="matrix(181.51,0,0,57.4477,399.959,271.83)">
                    <path d="M-0.002,0.12L0.06,0.103L0.06,-0.356C0.06,-0.371 0.059,-0.38 0.057,-0.385C0.055,-0.389 0.049,-0.394 0.04,-0.399L-0.005,-0.423L0,-0.498C0.003,-0.499 0.007,-0.499 0.01,-0.5C0.013,-0.501 0.017,-0.501 0.021,-0.502C0.052,-0.508 0.086,-0.514 0.121,-0.52C0.156,-0.525 0.184,-0.529 0.207,-0.53C0.213,-0.516 0.217,-0.5 0.219,-0.482C0.24,-0.499 0.262,-0.511 0.285,-0.52C0.309,-0.529 0.333,-0.533 0.356,-0.533C0.423,-0.533 0.474,-0.509 0.509,-0.463C0.545,-0.416 0.563,-0.349 0.563,-0.262C0.563,-0.172 0.538,-0.103 0.489,-0.056C0.44,-0.008 0.368,0.016 0.275,0.016C0.265,0.016 0.249,0.015 0.228,0.014L0.228,0.069C0.228,0.084 0.229,0.093 0.231,0.098C0.233,0.103 0.239,0.107 0.248,0.112L0.307,0.145L0.303,0.215L0.003,0.215L-0.002,0.12ZM0.301,-0.108C0.332,-0.108 0.358,-0.112 0.377,-0.121C0.382,-0.138 0.387,-0.158 0.391,-0.182C0.394,-0.205 0.396,-0.227 0.396,-0.248C0.396,-0.299 0.387,-0.339 0.37,-0.367C0.352,-0.395 0.327,-0.409 0.296,-0.409C0.277,-0.409 0.254,-0.403 0.228,-0.392L0.228,-0.12C0.247,-0.112 0.272,-0.108 0.301,-0.108Z" style="fill:rgb(33,48,73);fill-rule:nonzero;"/>
                </g>
            </g>
        </g>
    </g>
</svg>
